<svg width="15" height="15" viewBox="0 0 15 15" fill="none" xmlns="http://www.w3.org/2000/svg">
<path d="M4.79995 6.0002H9.59997M4.79995 8.4002H7.19995M13.2 7.2002C13.2 10.5139 10.5136 13.2002 7.19995 13.2002C6.51633 13.2002 5.93008 13.1029 5.38572 12.9081C4.87123 12.7241 4.61398 12.6321 4.51526 12.6089C3.60452 12.3947 3.2267 13.0188 2.44174 13.1497C2.0562 13.2138 1.71316 12.8982 1.74515 12.5087C1.77313 12.168 2.00868 11.8459 2.10268 11.5189C2.29809 10.8388 2.03293 10.3233 1.75279 9.7186C1.39804 8.95278 1.19995 8.09959 1.19995 7.2002C1.19995 3.88649 3.88624 1.2002 7.19995 1.2002C10.5136 1.2002 13.2 3.88649 13.2 7.2002Z" stroke="#171717" stroke-width="0.9" stroke-linecap="round" stroke-linejoin="round"/>
</svg>
